<?xml version="1.0" encoding="UTF-8"?>
<svg id="toggle" xmlns="http://www.w3.org/2000/svg" viewBox="0 0 512 512">
    <path fill="currentColor" d="M426.85,148.76c-8-1.86-16.35-2.84-24.92-2.84H110.07C49.28,145.92,0,195.21,0,256c0,30.39,12.32,57.91,32.24,77.83,19.92,19.92,47.43,32.24,77.83,32.24h291.86c8.57,0,16.91-.98,24.92-2.84,48.79-11.29,85.15-55.02,85.15-107.24s-36.36-95.95-85.15-107.24ZM399.85,343.23c-13.85,0-26.94-3.23-38.57-8.97-28.82-14.24-48.66-43.94-48.66-78.26s19.83-64.02,48.66-78.26c11.63-5.74,24.73-8.97,38.57-8.97,48.17,0,87.22,39.06,87.22,87.23s-39.05,87.23-87.22,87.23Z" />
</svg>
